<svg width="149" height="37" viewBox="0 0 149 37" fill="none" xmlns="http://www.w3.org/2000/svg">
<path d="M31.1473 13.6477L31.1255 13.626C31.1238 13.6247 31.1224 13.6231 31.1215 13.6212L17.5006 0L3.87983 13.6209C3.87826 13.6225 3.8758 13.6256 3.8758 13.6256L3.85333 13.6474C1.77053 15.7419 0.447586 18.4725 0.0948175 21.4052C-0.25795 24.3379 0.379698 27.3044 1.90639 29.8331C3.43309 32.3619 5.76122 34.3077 8.52069 35.3612C11.2802 36.4147 14.3126 36.5157 17.136 35.6477C17.3735 35.5751 17.6275 35.5751 17.8651 35.6477C20.6882 36.5153 23.7205 36.4144 26.4798 35.3607C29.2391 34.307 31.567 32.3613 33.0936 29.8328C34.6202 27.3042 35.2579 24.3379 34.9053 21.4054C34.5526 18.4728 33.2299 15.7422 31.1473 13.6477ZM8.7232 22.6298C8.65689 22.6961 8.6043 22.7749 8.56844 22.8615C8.53257 22.948 8.5141 23.0408 8.51412 23.1346C8.53835 25.5386 9.21776 27.8904 10.4792 29.9371C10.5079 29.9835 10.5211 30.0379 10.517 30.0922C10.513 30.1465 10.4918 30.1982 10.4566 30.2399C10.4213 30.2816 10.3738 30.311 10.3209 30.324C10.2679 30.337 10.2122 30.333 10.1616 30.3124C9.21332 29.9135 8.35182 29.3336 7.62531 28.6053C6.13646 27.1162 5.29946 25.097 5.2981 22.9912C5.29675 20.8855 6.13117 18.8652 7.61812 17.3743L17.5006 7.49273L27.3826 17.3743C28.8698 18.865 29.7045 20.8853 29.703 22.9912C29.7018 25.097 28.8647 27.1162 27.3757 28.6053C26.6492 29.3336 25.7877 29.9135 24.8396 30.3124C24.7889 30.333 24.7332 30.337 24.6802 30.324C24.6273 30.311 24.5798 30.2814 24.5445 30.2399C24.5093 30.1982 24.488 30.1465 24.484 30.092C24.4799 30.0377 24.4931 29.9833 24.5218 29.9369C25.7835 27.8904 26.4633 25.5386 26.4879 23.1346C26.4879 23.0408 26.4692 22.948 26.4332 22.8613C26.3971 22.7746 26.3444 22.696 26.2779 22.6296L21.6037 17.6717C21.5571 17.6329 21.4985 17.6116 21.4378 17.6116C21.3773 17.6116 21.3186 17.6329 21.2721 17.6717C21.2255 17.7104 21.1942 17.7644 21.1833 17.824C21.1724 17.8837 21.1828 17.945 21.2127 17.9978C23.0281 21.283 21.467 26.0017 18.8637 28.6053L18.85 28.6191C18.4907 28.9745 18.0056 29.1738 17.5002 29.1736C16.9948 29.1734 16.5098 28.9738 16.1508 28.6182L16.1382 28.6053C13.5339 26.0017 11.9736 21.2835 13.7893 17.9985C13.8192 17.9457 13.8296 17.8844 13.8187 17.8247C13.8079 17.7651 13.7764 17.7111 13.7299 17.6724C13.6834 17.6336 13.6247 17.6123 13.5642 17.6123C13.5036 17.6123 13.4449 17.6336 13.3984 17.6724L8.7232 22.6298Z" fill="#F53838"/>
<path d="M42.848 30V12.48H54.752V15.336H46.208V19.512H54.272V22.272H46.208V27.144H54.752V30H42.848ZM61.8142 30.24C60.1502 30.24 58.8622 29.672 57.9502 28.536C57.0382 27.4 56.5822 25.808 56.5822 23.76C56.5822 21.712 57.0382 20.12 57.9502 18.984C58.8622 17.848 60.1502 17.28 61.8142 17.28C62.6302 17.28 63.3582 17.424 63.9982 17.712C64.6542 17.984 65.2302 18.408 65.7262 18.984H65.7742V12.48H69.0622V30H65.9422L65.8942 28.536H65.8462C65.3502 29.096 64.7582 29.52 64.0702 29.808C63.3822 30.096 62.6302 30.24 61.8142 30.24ZM62.7742 27.6C63.3502 27.6 63.8622 27.48 64.3102 27.24C64.7582 27 65.1102 26.68 65.3662 26.28C65.6382 25.864 65.7742 25.392 65.7742 24.864V22.656C65.7742 22.128 65.6382 21.664 65.3662 21.264C65.1102 20.848 64.7582 20.52 64.3102 20.28C63.8622 20.04 63.3502 19.92 62.7742 19.92C61.8302 19.92 61.1022 20.256 60.5902 20.928C60.0782 21.584 59.8222 22.528 59.8222 23.76C59.8222 24.992 60.0782 25.944 60.5902 26.616C61.1022 27.272 61.8302 27.6 62.7742 27.6ZM75.3982 30.24C74.1662 30.24 73.1902 29.896 72.4702 29.208C71.7662 28.52 71.4142 27.6 71.4142 26.448C71.4142 25.008 71.9742 23.896 73.0942 23.112C74.2302 22.328 75.8382 21.936 77.9182 21.936H79.5742C79.5742 21.168 79.3742 20.624 78.9742 20.304C78.5742 19.984 77.8862 19.824 76.9102 19.824C76.1262 19.824 75.3582 19.92 74.6062 20.112C73.8702 20.304 73.1182 20.608 72.3502 21.024L71.9662 18.432C72.7662 18.032 73.5982 17.744 74.4622 17.568C75.3422 17.376 76.3022 17.28 77.3422 17.28C78.6702 17.28 79.7342 17.44 80.5342 17.76C81.3502 18.08 81.9422 18.6 82.3102 19.32C82.6782 20.024 82.8622 20.96 82.8622 22.128V30H79.7182L79.6942 28.56H79.6462C79.1982 29.072 78.5822 29.48 77.7982 29.784C77.0142 30.088 76.2142 30.24 75.3982 30.24ZM76.5982 27.744C77.1582 27.744 77.6622 27.648 78.1102 27.456C78.5582 27.264 78.9102 27 79.1662 26.664C79.4382 26.312 79.5742 25.928 79.5742 25.512V24.096H78.3982C77.1022 24.096 76.1342 24.264 75.4942 24.6C74.8542 24.92 74.5342 25.424 74.5342 26.112C74.5342 26.624 74.7102 27.024 75.0622 27.312C75.4302 27.6 75.9422 27.744 76.5982 27.744ZM85.8513 30V17.52H89.0193L89.0433 19.848H89.1153C89.5313 19.288 90.0193 18.824 90.5793 18.456C91.1553 18.072 91.7793 17.784 92.4513 17.592C93.1393 17.384 93.8433 17.28 94.5633 17.28V20.088C93.5713 20.088 92.6673 20.272 91.8513 20.64C91.0353 21.008 90.3873 21.512 89.9073 22.152C89.4273 22.776 89.1873 23.472 89.1873 24.24V30H85.8513ZM99.4919 30.24C98.2599 30.24 97.2839 29.896 96.5639 29.208C95.8599 28.52 95.5079 27.6 95.5079 26.448C95.5079 25.008 96.0679 23.896 97.1879 23.112C98.3239 22.328 99.9319 21.936 102.012 21.936H103.668C103.668 21.168 103.468 20.624 103.068 20.304C102.668 19.984 101.98 19.824 101.004 19.824C100.22 19.824 99.4519 19.92 98.6999 20.112C97.9639 20.304 97.2119 20.608 96.4439 21.024L96.0599 18.432C96.8599 18.032 97.6919 17.744 98.5559 17.568C99.4359 17.376 100.396 17.28 101.436 17.28C102.764 17.28 103.828 17.44 104.628 17.76C105.444 18.08 106.036 18.6 106.404 19.32C106.772 20.024 106.956 20.96 106.956 22.128V30H103.812L103.788 28.56H103.74C103.292 29.072 102.676 29.48 101.892 29.784C101.108 30.088 100.308 30.24 99.4919 30.24ZM100.692 27.744C101.252 27.744 101.756 27.648 102.204 27.456C102.652 27.264 103.004 27 103.26 26.664C103.532 26.312 103.668 25.928 103.668 25.512V24.096H102.492C101.196 24.096 100.228 24.264 99.5879 24.6C98.9479 24.92 98.6279 25.424 98.6279 26.112C98.6279 26.624 98.8039 27.024 99.1559 27.312C99.5239 27.6 100.036 27.744 100.692 27.744ZM109.945 30V17.52H113.089L113.113 19.2H113.161C113.721 18.528 114.337 18.04 115.009 17.736C115.697 17.432 116.489 17.28 117.385 17.28C118.905 17.28 120.001 17.72 120.673 18.6C121.361 19.48 121.705 20.88 121.705 22.8V30H118.417V23.448C118.417 22.264 118.241 21.392 117.889 20.832C117.553 20.272 117.009 19.992 116.257 19.992C115.697 19.992 115.185 20.136 114.721 20.424C114.273 20.696 113.913 21.064 113.641 21.528C113.385 21.976 113.257 22.48 113.257 23.04V30H109.945ZM129.559 35.28C128.551 35.28 127.631 35.168 126.799 34.944C125.967 34.72 125.247 34.384 124.639 33.936L125.191 31.44C125.815 31.872 126.463 32.192 127.135 32.4C127.807 32.624 128.519 32.736 129.271 32.736C130.583 32.736 131.543 32.4 132.151 31.728C132.775 31.056 133.087 30 133.087 28.56V27.912H133.039C132.543 28.456 131.967 28.864 131.311 29.136C130.655 29.392 129.927 29.52 129.127 29.52C127.463 29.52 126.175 28.984 125.263 27.912C124.351 26.84 123.895 25.336 123.895 23.4C123.895 21.464 124.351 19.96 125.263 18.888C126.175 17.816 127.463 17.28 129.127 17.28C129.927 17.28 130.671 17.416 131.359 17.688C132.063 17.96 132.663 18.36 133.159 18.888H133.207L133.231 17.52H136.375V28.56C136.375 30.784 135.799 32.456 134.647 33.576C133.511 34.712 131.815 35.28 129.559 35.28ZM130.087 26.88C130.679 26.88 131.191 26.776 131.623 26.568C132.071 26.36 132.423 26.08 132.679 25.728C132.951 25.36 133.087 24.944 133.087 24.48V22.32C133.087 21.856 132.951 21.448 132.679 21.096C132.423 20.728 132.071 20.44 131.623 20.232C131.191 20.024 130.679 19.92 130.087 19.92C129.159 19.92 128.431 20.224 127.903 20.832C127.391 21.44 127.135 22.296 127.135 23.4C127.135 24.52 127.391 25.384 127.903 25.992C128.431 26.584 129.159 26.88 130.087 26.88Z" fill="black"/>
</svg>
